<?xml version="1.0" encoding="utf-8"?>
<!-- Generator: Adobe Illustrator 26.3.1, SVG Export Plug-In . SVG Version: 6.00 Build 0)  -->
<svg version="1.1" id="Layer_1" xmlns="http://www.w3.org/2000/svg" xmlns:xlink="http://www.w3.org/1999/xlink" x="0px" y="0px"
	 viewBox="0 0 16 16" style="enable-background:new 0 0 16 16;" xml:space="preserve">
<style type="text/css">
	.st0{clip-path:url(#SVGID_00000090266346015488297480000002051469264800105399_);}
	.st1{clip-path:url(#SVGID_00000045578699379888160440000018404130615728225722_);}
	.st2{fill:#BCBEC0;}
	.st3{fill:#6D6E71;}
</style>
<g>
	<g>
		<defs>
			<rect id="SVGID_1_" x="0" width="16" height="16"/>
		</defs>
		<clipPath id="SVGID_00000025418720701963505560000017232230443407561345_">
			<use xlink:href="#SVGID_1_"  style="overflow:visible;"/>
		</clipPath>
		<g style="clip-path:url(#SVGID_00000025418720701963505560000017232230443407561345_);">
			<defs>
				<rect id="SVGID_00000013901841310896339890000013654248210800846504_" x="0" width="16" height="16"/>
			</defs>
			<clipPath id="SVGID_00000114075653461757504320000017242755200858658488_">
				<use xlink:href="#SVGID_00000013901841310896339890000013654248210800846504_"  style="overflow:visible;"/>
			</clipPath>
			<g style="clip-path:url(#SVGID_00000114075653461757504320000017242755200858658488_);">
				<g>
				</g>
			</g>
		</g>
		<g style="clip-path:url(#SVGID_00000025418720701963505560000017232230443407561345_);">
			<defs>
				<rect id="SVGID_00000142155810291346528990000017231675477720545433_" x="0" width="16" height="16"/>
			</defs>
			<clipPath id="SVGID_00000039841417475485866870000003858388120916332957_">
				<use xlink:href="#SVGID_00000142155810291346528990000017231675477720545433_"  style="overflow:visible;"/>
			</clipPath>
		</g>
	</g>
</g>
<g>
	<rect x="7.31" y="10.62" class="st2" width="5.48" height="3.19"/>
	<g>
		<g>
			<path class="st3" d="M7.47,11h0.62c0.75,0,1.15,0.44,1.15,1.23c0,0.79-0.41,1.26-1.14,1.26H7.47V11z M8.07,13.23
				c0.57,0,0.85-0.37,0.85-1c0-0.63-0.28-0.97-0.85-0.97H7.79v1.97H8.07z"/>
			<path class="st3" d="M9.19,13.22h0.62v-1.95H9.19V11h1.56v0.27h-0.62v1.95h0.62v0.27H9.19V13.22z"/>
			<path class="st3" d="M10.9,11h0.78c0.5,0,0.87,0.18,0.87,0.7c0,0.5-0.37,0.74-0.87,0.74h-0.46v1.05H10.9V11z M11.63,12.18
				c0.39,0,0.6-0.16,0.6-0.48c0-0.33-0.21-0.45-0.6-0.45h-0.41v0.92H11.63z M11.86,12.19l0.76,1.31h-0.36l-0.65-1.14L11.86,12.19z"
				/>
		</g>
	</g>
</g>
</svg>
