<?xml version="1.0" encoding="utf-8"?>
<!-- Generator: Adobe Illustrator 26.3.1, SVG Export Plug-In . SVG Version: 6.00 Build 0)  -->
<svg version="1.1" id="Layer_1" xmlns="http://www.w3.org/2000/svg" x="0px" y="0px"
     viewBox="0 0 16 16" style="enable-background:new 0 0 16 16;" xml:space="preserve">
<style type="text/css">
	.st0{fill:#FFFFFF;stroke:#BCBEC0;stroke-linecap:round;stroke-linejoin:round;stroke-miterlimit:10;}
	.st1{fill:#D1D3D4;}
</style>
<polygon class="st0" points="3.49,4.9 3.49,14.48 12.51,14.48 12.51,1.52 6.11,1.52 "/>
<g>
	<g>
		<path class="st1" d="M5.29,10.33c0-0.57,0.08-0.99,0.08-1.52c0-0.31-0.21-0.61-1.14-0.61V7.8c0.93-0.01,1.14-0.31,1.14-0.61
			c0-0.5-0.08-0.97-0.08-1.52c0-0.81,0.47-1.04,1.46-1.04h0.49v0.37H6.82c-0.8,0-0.98,0.2-0.98,0.71c0,0.45,0.05,0.94,0.05,1.42
			c0,0.51-0.17,0.76-0.72,0.86v0.03c0.54,0.09,0.72,0.35,0.72,0.86c0,0.53-0.05,0.94-0.05,1.42c0,0.51,0.17,0.71,0.98,0.71h0.41
			v0.37H6.74C5.76,11.38,5.29,11.14,5.29,10.33z"/>
		<path class="st1" d="M8.78,11.01h0.4c0.8,0,0.98-0.2,0.98-0.71c0-0.48-0.05-0.89-0.05-1.42c0-0.51,0.17-0.76,0.71-0.86V7.99
			c-0.54-0.09-0.71-0.35-0.71-0.86c0-0.49,0.05-0.97,0.05-1.42c0-0.51-0.18-0.71-0.98-0.71h-0.4V4.62h0.48
			c0.99,0,1.45,0.24,1.45,1.04c0,0.54-0.07,1.02-0.07,1.52c0,0.31,0.21,0.61,1.14,0.61v0.41c-0.93,0.01-1.14,0.31-1.14,0.61
			c0,0.53,0.07,0.94,0.07,1.52c0,0.81-0.46,1.04-1.45,1.04H8.78V11.01z"/>
	</g>
</g>
</svg>
