<?xml version="1.0" encoding="utf-8"?>
<!-- Generator: Adobe Illustrator 26.3.1, SVG Export Plug-In . SVG Version: 6.00 Build 0)  -->
<svg version="1.1" id="Layer_1" xmlns="http://www.w3.org/2000/svg" xmlns:xlink="http://www.w3.org/1999/xlink" x="0px" y="0px"
	 viewBox="0 0 16 16" style="enable-background:new 0 0 16 16;" xml:space="preserve">
<style type="text/css">
	.st0{fill:#A7A9AC;stroke:#808285;stroke-linecap:round;stroke-linejoin:round;stroke-miterlimit:10;}
</style>
<path class="st0" d="M13.5,8.4c0-0.1,0-0.2,0-0.4c0-0.8-0.2-1.5-0.4-2.1l0.6-1c-0.2-0.4-0.5-0.9-0.9-1.2L11.8,4
	c-0.7-0.7-1.7-1.2-2.7-1.4l-0.4-1c-0.2,0-0.5,0-0.7,0s-0.5,0-0.7,0l-0.4,1c-1,0.2-2,0.7-2.7,1.4L3.2,3.6C2.8,4,2.5,4.4,2.3,4.9
	l0.6,1C2.6,6.5,2.4,7.3,2.4,8c0,0.1,0,0.2,0,0.4L1.5,9c0.1,0.6,0.3,1.2,0.5,1.8L3.3,11c0.3,0.5,0.8,1,1.2,1.4l-0.1,1.2
	c0.6,0.4,1.2,0.7,1.9,0.8l0.9-0.8c0.3,0,0.5,0.1,0.8,0.1s0.5,0,0.8-0.1l0.9,0.8c0.7-0.2,1.3-0.5,1.9-0.8l-0.1-1.2
	c0.5-0.4,0.9-0.9,1.2-1.4l1.2-0.2c0.3-0.5,0.4-1.1,0.5-1.8L13.5,8.4z M8,10.5c-1.4,0-2.5-1.1-2.5-2.5c0-1.4,1.1-2.5,2.5-2.5
	s2.5,1.1,2.5,2.5C10.5,9.4,9.4,10.5,8,10.5z"/>
</svg>
