<?xml version="1.0" encoding="utf-8"?>
<!-- Generator: Adobe Illustrator 26.3.1, SVG Export Plug-In . SVG Version: 6.00 Build 0)  -->
<svg version="1.1" id="Layer_1" xmlns="http://www.w3.org/2000/svg" xmlns:xlink="http://www.w3.org/1999/xlink" x="0px" y="0px"
	 viewBox="0 0 16 16" style="enable-background:new 0 0 16 16;" xml:space="preserve">
<style type="text/css">
	.st0{fill:#6BCFF5;}
	.st1{fill:#3C93BF;}
	.st2{fill:none;stroke:#999999;stroke-miterlimit:10;}
	.st3{fill:#3A91BC;}
	.st4{font-family:'ArialRoundedMTBold';}
	.st5{font-size:12px;}
</style>
<g>
	<path class="st0" d="M3,14.5c-0.8,0-1.5-0.7-1.5-1.5V3c0-0.8,0.7-1.5,1.5-1.5h10c0.8,0,1.5,0.7,1.5,1.5v10c0,0.8-0.7,1.5-1.5,1.5H3
		z"/>
	<path class="st1" d="M13,2c0.6,0,1,0.5,1,1v10c0,0.6-0.5,1-1,1H3c-0.6,0-1-0.5-1-1V3c0-0.6,0.5-1,1-1H13 M13,1H3C1.9,1,1,1.9,1,3
		v10c0,1.1,0.9,2,2,2h10c1.1,0,2-0.9,2-2V3C15,1.9,14.1,1,13,1L13,1z"/>
</g>
<path class="st2" d="M8,12.5"/>
<text transform="matrix(1 0 0 1 6.3743 12.2598)" class="st3 st4 st5">i</text>
</svg>
