<?xml version="1.0" encoding="utf-8"?>
<!-- Generator: Adobe Illustrator 26.3.1, SVG Export Plug-In . SVG Version: 6.00 Build 0)  -->
<svg version="1.1" id="Layer_1" xmlns="http://www.w3.org/2000/svg" xmlns:xlink="http://www.w3.org/1999/xlink" x="0px" y="0px"
	 viewBox="0 0 16 16" style="enable-background:new 0 0 16 16;" xml:space="preserve">
<style type="text/css">
	.st0{fill:#4F719A;}
	.st1{fill:#014976;}
	.st2{fill:#ACC0DC;}
	.st3{font-family:'Avenir-Black';}
	.st4{font-size:8px;}
</style>
<g>
	<path class="st0" d="M3,15.2c-1.2,0-2.3-1-2.3-2.3V3c0-1.2,1-2.3,2.3-2.3h10c1.2,0,2.3,1,2.3,2.3v10c0,1.2-1,2.3-2.3,2.3H3z"/>
	<path class="st1" d="M13,1.5c0.8,0,1.5,0.7,1.5,1.5v10c0,0.8-0.7,1.5-1.5,1.5H3c-0.8,0-1.5-0.7-1.5-1.5V3c0-0.8,0.7-1.5,1.5-1.5H13
		 M13,0H3C1.3,0,0,1.3,0,3v10c0,1.7,1.3,3,3,3h10c1.7,0,3-1.3,3-3V3C16,1.3,14.7,0,13,0L13,0z"/>
</g>
<text transform="matrix(0.8374 0 0 1 1.9688 10.0244)" class="st2 st3 st4">Py+</text>
</svg>
