<?xml version="1.0" standalone="no"?>
<!DOCTYPE svg PUBLIC "-//W3C//DTD SVG 20010904//EN"
 "http://www.w3.org/TR/2001/REC-SVG-20010904/DTD/svg10.dtd">
<svg version="1.0" xmlns="http://www.w3.org/2000/svg"
 width="32.000000pt" height="32.000000pt" viewBox="0 0 32.000000 32.000000"
 preserveAspectRatio="xMidYMid meet">
<metadata>
Created by potrace 1.16, written by Peter Selinger 2001-2019
</metadata>
<g transform="translate(0.000000,32.000000) scale(0.100000,-0.100000)"
fill="#000000" stroke="none">
<path d="M0 160 l0 -160 160 0 160 0 0 160 0 160 -160 0 -160 0 0 -160z m111
54 c17 -21 0 -48 -34 -52 -19 -2 -27 -10 -30 -30 -2 -15 -5 1 -6 36 l-1 62 29
0 c16 0 34 -7 42 -16z m167 -35 c15 -1 15 -2 0 -6 -10 -2 -19 -12 -19 -21 -1
-15 -2 -15 -6 1 -2 9 -12 18 -21 18 -15 1 -15 2 1 6 9 2 18 12 18 21 1 15 2
15 6 0 2 -10 12 -19 21 -19z m-85 -14 c9 22 16 33 16 25 1 -22 -42 -93 -59
-98 -10 -3 -8 1 4 10 17 14 17 16 2 46 -9 17 -16 37 -16 44 0 7 9 -5 18 -27
l18 -39 17 39z"/>
<path d="M50 195 c0 -23 4 -26 28 -23 19 2 27 9 27 23 0 14 -8 21 -27 23 -24
3 -28 0 -28 -23z"/>
</g>
</svg>
